<svg id="Ebene_1" data-name="Ebene 1" xmlns="http://www.w3.org/2000/svg" viewBox="0 0 248.05 251.87"><defs><style>.cls-1{fill:#fff;}</style></defs><path class="cls-1" d="M247.9,125.93c0,40-.12,80,.15,120.07,0,5-.91,5.88-5.87,5.87q-118.16-.31-236.32,0C.91,251.88,0,251,0,246Q.32,125.94,0,5.86C0,.91.91,0,5.86,0Q124,.32,242.18,0c5,0,5.9.91,5.87,5.87C247.78,45.89,247.9,85.91,247.9,125.93Zm-134.21-69v0c-18.37,0-36.75-.29-55.12.09-14.38.3-22,6.62-22.49,20.2-.78,22.13-.79,44.32.05,66.44.6,15.79,8.06,22.09,24.31,23.09,5.68.35,11.4,0,17.1.16,5.4.18,12.31-1.73,13,6.91.59,7.6-4.29,9.41-10.88,9.73a33.26,33.26,0,0,0-10.84,2.88c-1.25.52-2.53,3.09-2.28,4.43A5.15,5.15,0,0,0,70.31,194a66.49,66.49,0,0,0,13.23-.58,205.55,205.55,0,0,1,60.56-.1c5,.71,13.83,4.47,14.83-2.23,1.31-8.85-8.52-6.46-14.13-7.82a13.17,13.17,0,0,0-1.89-.21c-6.14-.54-7.3-5.14-6-9.48.83-2.67,4.48-5.93,7.2-6.27,7.49-.93,15.18-.16,22.76-.61,15.94-1,22.7-7.76,23-24,.37-20.9.33-41.81,0-62.71-.25-16.71-6.3-22.72-23-23C149.17,56.65,131.43,56.9,113.69,56.9Z"/><path d="M113.69,56.9c17.74,0,35.48-.25,53.22.07,16.71.31,22.76,6.32,23,23,.31,20.9.35,41.81,0,62.71-.29,16.21-7.05,23-23,24-7.58.45-15.27-.32-22.76.61-2.72.34-6.37,3.6-7.2,6.27-1.34,4.34-.18,8.94,6,9.48a13.17,13.17,0,0,1,1.89.21c5.61,1.36,15.44-1,14.13,7.82-1,6.7-9.85,2.94-14.83,2.23a205.55,205.55,0,0,0-60.56.1,66.49,66.49,0,0,1-13.23.58,5.15,5.15,0,0,1-3.78-3.18c-.25-1.34,1-3.91,2.28-4.43a33.26,33.26,0,0,1,10.84-2.88c6.59-.32,11.47-2.13,10.88-9.73-.68-8.64-7.59-6.73-13-6.91-5.7-.19-11.42.19-17.1-.16-16.25-1-23.71-7.3-24.31-23.09-.84-22.12-.83-44.31-.05-66.44.48-13.58,8.11-19.9,22.49-20.2,18.37-.38,36.75-.09,55.12-.09Zm-1.86,99.65c17.72,0,35.44.28,53.16-.09,12.24-.26,14.38-2.4,14.57-14.56q.51-31.32,0-62.66c-.19-10.88-2.44-13.21-13.81-13.32q-52.21-.53-104.43,0c-11.45.11-14.87,3.57-15.12,14.8-.46,20.24-.41,40.51-.06,60.76.21,12.48,2.86,14.81,16.32,15C78.92,156.77,95.37,156.55,111.83,156.55Z"/><path class="cls-1" d="M111.83,156.55c-16.46,0-32.91.22-49.36-.07-13.46-.24-16.11-2.57-16.32-15-.35-20.25-.4-40.52.06-60.76.25-11.23,3.67-14.69,15.12-14.8q52.22-.5,104.43,0c11.37.11,13.62,2.44,13.81,13.32q.54,31.32,0,62.66c-.19,12.16-2.33,14.3-14.57,14.56C147.27,156.83,129.55,156.55,111.83,156.55Z"/></svg>