<svg id="Ebene_1" data-name="Ebene 1" xmlns="http://www.w3.org/2000/svg" viewBox="0 0 313.16 262.32"><defs><style>.cls-1{fill:#fff;}</style></defs><path class="cls-1" d="M313.16,262.32H0V0H313.16ZM152.62,91.48c-4.31-6.53-3.56-12.26-3.61-18-.1-11.62-8.64-19-19.85-17.65C67.4,63.44,30.64,127,54.47,184.49c15.06,36.36,55.72,62.38,101.61,55.6,41.55-6.15,69.74-38.39,67.36-80.1-1.48-26.11-13.93-45.52-39.25-55.25-1.78-.68-3.51-1.49-6.13-2.61,1.73-2.19,2.85-3.78,4.14-5.21Q202,75.16,221.9,53.41a71.65,71.65,0,0,0,6.3-7.91c2.52-3.7,1.34-7.18-1.57-10s-6.5-3.79-10.17-1.53a44.35,44.35,0,0,0-6.3,5.1c-9.76,8.89-19.45,17.85-29.2,26.74C171.77,74.16,162.53,82.49,152.62,91.48Z"/><path d="M152.62,91.48c9.91-9,19.15-17.32,28.34-25.71,9.75-8.89,19.44-17.85,29.2-26.74a44.35,44.35,0,0,1,6.3-5.1c3.67-2.26,7.24-1.33,10.17,1.53s4.09,6.34,1.57,10a71.65,71.65,0,0,1-6.3,7.91q-19.8,21.81-39.7,43.51c-1.29,1.43-2.41,3-4.14,5.21,2.62,1.12,4.35,1.93,6.13,2.61,25.32,9.73,37.77,29.14,39.25,55.25,2.38,41.71-25.81,73.95-67.36,80.1-45.89,6.78-86.55-19.24-101.61-55.6C30.64,127,67.4,63.44,129.16,55.84c11.21-1.38,19.75,6,19.85,17.65C149.06,79.22,148.31,85,152.62,91.48Zm-39,76c0,.31,0,2,0,3.64-.55,14.31-9.35,22.48-23.5,21.79-2-.1-4-.32-6.07-.56-5.85-.69-10.52,1.07-13.91,6.39a38.77,38.77,0,0,0,2.25,3.53A69.68,69.68,0,0,0,77,207.62c22,22.59,49,30.72,79.67,25.94,39-6.08,63.28-36.13,60.88-73.7-1.77-27.73-19.91-48-46.38-51.24-1.52,1.68-3.31,3.68-5.13,5.67-12.56,13.72-25,27.57-37.79,41.09C124.42,159.43,119.62,162.55,113.62,167.44Zm31.81-69.76c-1-9.22-1.9-16.83-2.53-24.46-.6-7.29-4.33-11.15-11.74-10.95a56.85,56.85,0,0,0-12,1.72C68.88,76.37,41,128.6,58.45,177.38c.8,2.23,2.07,4.29,3.88,8,2.28-21.65,11.11-37.42,33-37.22C109,127.24,130.28,114.73,145.43,97.68ZM222.1,39.11c-7.84,3.69-87.94,76.68-94,85.39,1.51,1.63,3,3.43,4.68,5,1.88,1.77,3.93,3.34,6.19,5.24,11-11.93,21.6-23.29,32.09-34.72q23.31-25.38,46.46-50.88C219.72,46.68,223.53,44.62,222.1,39.11ZM70.63,186.59c6.84.16,13.39.2,19.93.49,7.31.33,12.39-2.51,15.44-9,3-6.21,1.79-12.16-3.41-17.45-5.46-5.56-12.17-7.19-18.28-4.45C73.6,161,67.33,175.59,70.63,186.59Zm51.94-34.11-12.89-12.62c-6.63,6.89-7.39,10.86-3.56,15.25C110.24,159.82,114.77,159.36,122.57,152.48Zm11.65-13-12.58-11.89-8.11,7.18,13.07,13Z"/><path class="cls-1" d="M113.62,167.44c6-4.89,10.8-8,14.62-12.06C141,141.86,153.47,128,166,114.29c1.82-2,3.61-4,5.13-5.67,26.47,3.2,44.61,23.51,46.38,51.24,2.4,37.57-21.93,67.62-60.88,73.7C126,238.34,99,230.21,77,207.62a69.68,69.68,0,0,1-4.61-5.39,38.77,38.77,0,0,1-2.25-3.53c3.39-5.32,8.06-7.08,13.91-6.39,2,.24,4,.46,6.07.56,14.15.69,23-7.48,23.5-21.79C113.67,169.42,113.62,167.75,113.62,167.44Zm64,22a27.11,27.11,0,0,0,27.28-27c0-14.44-12.67-27.09-27.35-27.25s-27.06,12.34-27,27.27C150.62,177.72,162.31,189.35,177.65,189.43ZM128.3,222.37a21,21,0,0,0,21.29-20.19c.25-11.14-9.18-20.77-20.52-21a20.8,20.8,0,0,0-21,20.23A20.4,20.4,0,0,0,128.3,222.37Z"/><path class="cls-1" d="M145.43,97.68c-15.15,17-36.44,29.56-50.11,50.46-21.88-.2-30.71,15.57-33,37.22-1.81-3.69-3.08-5.75-3.88-8C41,128.6,68.88,76.37,119.13,64a56.85,56.85,0,0,1,12-1.72c7.41-.2,11.14,3.66,11.74,10.95C143.53,80.85,144.47,88.46,145.43,97.68ZM99.92,122.51c-.15-9.05-7.55-16.31-16.16-15.87-8.24.43-15.45,7.81-15.52,15.89-.07,9,6.87,15.9,16.06,15.91C93.78,138.45,100.09,132,99.92,122.51ZM126,92.21c.16-7.71-5.49-13.5-13.32-13.64A13,13,0,0,0,99.75,91.43a13.13,13.13,0,1,0,26.25.78Z"/><path class="cls-1" d="M222.1,39.11c1.43,5.51-2.38,7.57-4.61,10Q194.4,74.73,171,100c-10.49,11.43-21.06,22.79-32.09,34.72-2.26-1.9-4.31-3.47-6.19-5.24-1.68-1.58-3.17-3.38-4.68-5C134.16,115.79,214.26,42.8,222.1,39.11Z"/><path class="cls-1" d="M70.63,186.59c-3.3-11,3-25.56,13.68-30.36,6.11-2.74,12.82-1.11,18.28,4.45,5.2,5.29,6.36,11.24,3.41,17.45-3,6.44-8.13,9.28-15.44,9C84,186.79,77.47,186.75,70.63,186.59Z"/><path class="cls-1" d="M122.57,152.48c-7.8,6.88-12.33,7.34-16.45,2.63-3.83-4.39-3.07-8.36,3.56-15.25Z"/><path class="cls-1" d="M134.22,139.5l-7.62,8.27-13.07-13,8.11-7.18Z"/><path d="M177.65,189.43c-15.34-.08-27-11.71-27.08-26.94,0-14.93,12.32-27.42,27-27.27S205,148,204.93,162.47A27.11,27.11,0,0,1,177.65,189.43Zm-.08-6.09a20.84,20.84,0,1,0-21-20.23A20.77,20.77,0,0,0,177.57,183.34Z"/><path d="M128.3,222.37A20.4,20.4,0,0,1,108,201.45a20.8,20.8,0,0,1,21-20.23c11.34.19,20.77,9.82,20.52,21A21,21,0,0,1,128.3,222.37Zm.57-35.14c-7.83-.12-15,7.07-14.8,14.93a14.57,14.57,0,0,0,14.42,14c8.48.06,14.67-6.18,14.56-14.69A14.5,14.5,0,0,0,128.87,187.23Z"/><path d="M99.92,122.51c.17,9.5-6.14,15.94-15.62,15.93-9.19,0-16.13-6.88-16.06-15.91.07-8.08,7.28-15.46,15.52-15.89C92.37,106.2,99.77,113.46,99.92,122.51Zm-15.34-9.2a9.23,9.23,0,0,0-9.72,9.36,9.51,9.51,0,0,0,9.26,9.9A9.74,9.74,0,0,0,94,123.13,9.51,9.51,0,0,0,84.58,113.31Z"/><path d="M126,92.21a13.13,13.13,0,1,1-26.25-.78,13,13,0,0,1,12.93-12.86C120.51,78.71,126.16,84.5,126,92.21Zm-12.65,6.94c3.47-.19,6.73-4,6.57-7.64-.17-4-3.28-6.63-7.44-6.4-3.74.21-7,3.74-6.74,7.28C106,95.77,110,99.33,113.35,99.15Z"/><path class="cls-1" d="M177.57,183.34A20.84,20.84,0,1,1,198.47,163,20.79,20.79,0,0,1,177.57,183.34Z"/><path class="cls-1" d="M128.87,187.23a14.5,14.5,0,0,1,14.18,14.26c.11,8.51-6.08,14.75-14.56,14.69a14.57,14.57,0,0,1-14.42-14C113.92,194.3,121,187.11,128.87,187.23Z"/><path class="cls-1" d="M84.58,113.31A9.51,9.51,0,0,1,94,123.13a9.74,9.74,0,0,1-9.87,9.44,9.51,9.51,0,0,1-9.26-9.9A9.23,9.23,0,0,1,84.58,113.31Z"/><path class="cls-1" d="M113.35,99.15c-3.34.18-7.34-3.38-7.61-6.76-.27-3.54,3-7.07,6.74-7.28,4.16-.23,7.27,2.45,7.44,6.4C120.08,95.17,116.82,99,113.35,99.15Z"/></svg>