<svg id="Ebene_1" data-name="Ebene 1" xmlns="http://www.w3.org/2000/svg" viewBox="0 0 360 360"><defs><style>.cls-1{fill:#fff;}</style></defs><path class="cls-1" d="M360,360H0V0H360ZM300.3,180.66c0-66.76-54-120.95-120.63-121s-121,54.35-121,120.8S112.79,301.27,179,301.29C246.32,301.31,300.3,247.64,300.3,180.66Z"/><path d="M300.3,180.66c0,67-54,120.65-121.32,120.63-66.19,0-120.32-54.38-120.3-120.82s54.49-120.84,121-120.8S300.31,113.9,300.3,180.66Zm-89.68,51.68c-11.76-36.16-23.25-71.57-34.91-106.93-.39-1.18-2.48-2.48-3.83-2.54-5.8-.29-11.63.15-17.42-.23-3.87-.26-5.5,1.15-6.62,4.73-7.43,23.71-15.05,47.35-22.6,71-3.56,11.15-7.13,22.29-10.85,34,6.14,0,11.62-.2,17.07.07,2.95.15,4-1.09,4.79-3.66,2.34-8.12,4.74-16.22,7.4-24.23.43-1.3,2.28-3,3.51-3,10.61-.24,21.22-.14,32-.14,3,9.39,5.88,18.54,9.05,27.57.49,1.4,2.41,3.17,3.76,3.25C197.89,232.54,203.87,232.34,210.62,232.34Zm8-.31h19.54V153.59H218.65Zm21-100.83c0-6.44-4.84-11.14-11.42-11a10.79,10.79,0,0,0-11,11c0,6.27,4.56,10.62,11.16,10.61S239.62,137.46,239.64,131.2Z"/><path class="cls-1" d="M210.62,232.34c-6.75,0-12.73.2-18.67-.15-1.35-.08-3.27-1.85-3.76-3.25-3.17-9-6-18.18-9.05-27.57-10.76,0-21.37-.1-32,.14-1.23,0-3.08,1.71-3.51,3-2.66,8-5.06,16.11-7.4,24.23-.74,2.57-1.84,3.81-4.79,3.66-5.45-.27-10.93-.07-17.07-.07,3.72-11.66,7.29-22.8,10.85-34,7.55-23.67,15.17-47.31,22.6-71,1.12-3.58,2.75-5,6.62-4.73,5.79.38,11.62-.06,17.42.23,1.35.06,3.44,1.36,3.83,2.54C187.37,160.77,198.86,196.18,210.62,232.34Zm-35.07-46.19c-4.77-15.66-9.35-30.7-14-46.12-4.55,15.59-9,30.68-13.46,46.12Z"/><path class="cls-1" d="M218.65,232V153.59h19.54V232Z"/><path class="cls-1" d="M239.64,131.2c0,6.26-4.57,10.53-11.23,10.55s-11.17-4.34-11.16-10.61a10.79,10.79,0,0,1,11-11C234.8,120.06,239.66,124.76,239.64,131.2Z"/><path d="M175.55,186.15h-27.5c4.5-15.44,8.91-30.53,13.46-46.12C166.2,155.45,170.78,170.49,175.55,186.15Z"/></svg>