<svg id="Ebene_1" data-name="Ebene 1" xmlns="http://www.w3.org/2000/svg" viewBox="0 0 360 360"><defs><style>.cls-1{fill:#fff;}</style></defs><path class="cls-1" d="M360,360H0V0H360ZM179.43,301.29c66.69,0,120.83-53.79,120.87-120.08,0-67.24-53.77-121.49-120.58-121.54-66.51-.06-121,54.31-121,120.75A120.87,120.87,0,0,0,179.43,301.29Z"/><path d="M179.43,301.29A120.87,120.87,0,0,1,58.68,180.42c0-66.44,54.53-120.81,121-120.75,66.81,0,120.62,54.3,120.58,121.54C300.26,247.5,246.12,301.29,179.43,301.29ZM139.64,189.46c5.05,0,9.49.67,13.64-.14,7.08-1.39,14.5-2.66,20.83-5.85,12.62-6.38,16.54-18.08,15.22-31.46-1.21-12.21-8.06-20.56-19.79-24.32-15.94-5.1-32-2.79-48.18-.89V227h18.28Zm97.85-21.05c.65-2.2,1.38-5.24,2.45-8.17,1.14-3.08.08-5.07-2.92-5.43-7.49-.91-15.13-2.58-22.53-1.9A22.59,22.59,0,0,0,193.62,173c-1,9.21,4.51,16.92,15.59,21.79.61.26,1.24.49,1.84.75,3.49,1.53,7.06,2.89,10.43,4.63s4.72,4.88,4.1,8.77-3.59,5.7-6.94,6.07a39.93,39.93,0,0,1-11.34-.44c-4.1-.75-8-2.37-12.26-3.68-1.13,4.37-2.21,8.49-3.34,12.86,10.84,5.21,21.74,6.83,33.12,4,11.8-2.94,18-9.6,19-20.13,1-9.58-4.06-17.15-15-22.26-3.74-1.76-7.65-3.14-11.42-4.84s-6.79-4.08-5.85-8.69,4.74-6.52,9-6.19C226.09,166.09,231.54,167.4,237.49,168.41Z"/><path class="cls-1" d="M139.64,189.46V227H121.36V126.8c16.15-1.9,32.24-4.21,48.18.89,11.73,3.76,18.58,12.11,19.79,24.32,1.32,13.38-2.6,25.08-15.22,31.46-6.33,3.19-13.75,4.46-20.83,5.85C149.13,190.13,144.69,189.46,139.64,189.46Zm.32-49.72v34.75c10.49.65,21,2.12,27.91-7.72,4.3-6.12,4.67-13.47.48-19.68C161.39,136.78,150.57,138.92,140,139.74Z"/><path class="cls-1" d="M237.49,168.41c-6-1-11.4-2.32-16.91-2.76-4.23-.33-8,1.51-9,6.19s2.16,7,5.85,8.69,7.68,3.08,11.42,4.84c10.9,5.11,15.92,12.68,15,22.26-1.06,10.53-7.22,17.19-19,20.13-11.38,2.84-22.28,1.22-33.12-4,1.13-4.37,2.21-8.49,3.34-12.86,4.23,1.31,8.16,2.93,12.26,3.68a39.93,39.93,0,0,0,11.34.44c3.35-.37,6.3-2.07,6.94-6.07s-.6-7-4.1-8.77-6.94-3.1-10.43-4.63c-.6-.26-1.23-.49-1.84-.75-11.08-4.87-16.59-12.58-15.59-21.79a22.59,22.59,0,0,1,20.87-20.11c7.4-.68,15,1,22.53,1.9,3,.36,4.06,2.35,2.92,5.43C238.87,163.17,238.14,166.21,237.49,168.41Z"/><path d="M140,139.74c10.61-.82,21.43-3,28.39,7.35,4.19,6.21,3.82,13.56-.48,19.68-6.92,9.84-17.42,8.37-27.91,7.72Z"/></svg>