<svg id="Ebene_1" data-name="Ebene 1" xmlns="http://www.w3.org/2000/svg" viewBox="0 0 155.86 156.74"><defs><style>.cls-1{fill:#1d1d1b;}</style></defs><rect class="cls-1" x="283.94" y="314.4" width="52.03" height="160.1" rx="14.78" transform="translate(145.79 -427.64) rotate(45)"/><ellipse class="cls-1" cx="367.66" cy="336.12" rx="12.58" ry="11.64" transform="translate(-353.9 34.42) rotate(-45)"/><rect class="cls-1" x="295.71" y="327.01" width="11.29" height="51.15" rx="5.65" transform="translate(41.22 490.99) rotate(-135)"/><path class="cls-1" d="M337.71,329.9s-5-5.66-10.12-5-7.24,2.45-7.24,2.45l-8.9,7.11,8,8,7.8-7.14a1.62,1.62,0,0,1,1.76,0,1.85,1.85,0,0,1,.48,2.78" transform="translate(-223.92 -324)"/><path class="cls-1" d="M251,416.57s-14.39,13.84-15.8,16-10.59,39.53-10.59,39.53-1.65,4.94,0,7.53,8.47,0,8.47,0l36-8.24s0-.23,1.88-1.64,9.68-9.38,9.68-9.38" transform="translate(-223.92 -324)"/></svg>